<svg width="20" height="20" viewBox="0 0 20 20" fill="none" xmlns="http://www.w3.org/2000/svg">
<path d="M10 1.33008C12.2986 1.33264 14.5026 2.2467 16.1279 3.87207C17.7533 5.49744 18.6674 7.70138 18.6699 10L18.6641 10.3213C18.6086 11.8168 18.1667 13.2726 17.3818 14.5469L17.209 14.8164C16.3159 16.153 15.0699 17.2138 13.6123 17.8818L13.3174 18.0098C11.8324 18.6248 10.2078 18.8148 8.625 18.5605L8.30859 18.5029C6.62682 18.1684 5.08163 17.3434 3.86914 16.1309C2.73238 14.9941 1.93622 13.5649 1.56543 12.0049L1.49707 11.6914C1.18347 10.1148 1.31479 8.48441 1.87305 6.98145L1.99023 6.68262C2.60545 5.19736 3.62058 3.91415 4.91992 2.97461L5.18359 2.79102C6.52009 1.89808 8.07665 1.39533 9.67871 1.33594L10 1.33008ZM12.6123 3.69336C11.3649 3.17667 9.9922 3.04128 8.66797 3.30469C7.34383 3.56813 6.12751 4.21819 5.17285 5.17285C4.21819 6.12751 3.56812 7.34383 3.30469 8.66797C3.05776 9.90938 3.16101 11.1935 3.60059 12.377L3.69336 12.6123C4.17781 13.7819 4.9768 14.7924 6 15.5322L6.20703 15.6758C7.25945 16.379 8.4855 16.7755 9.74707 16.8223L10 16.8262C11.8099 16.8242 13.5454 16.105 14.8252 14.8252C16.105 13.5454 16.8242 11.8099 16.8262 10L16.8223 9.74707C16.7786 8.56953 16.4305 7.42323 15.8125 6.41992L15.6758 6.20703C14.9725 5.15462 13.9915 4.31985 12.8438 3.79395L12.6123 3.69336ZM13.3535 11.0078C13.4445 11.0194 13.5329 11.0445 13.6162 11.082L13.6982 11.124C13.8042 11.1852 13.8967 11.2669 13.9707 11.3643C14.0262 11.4373 14.071 11.5178 14.1025 11.6035L14.1299 11.6914C14.1529 11.7805 14.1624 11.8723 14.1582 11.9639L14.1494 12.0547C14.1362 12.1455 14.1095 12.2338 14.0703 12.3164L14.0273 12.3975H14.0264C13.1464 13.9221 11.6772 14.7959 10 14.7959C8.42746 14.7959 7.03984 14.0289 6.14551 12.6758L5.97363 12.3975C5.8718 12.2129 5.83615 11.9999 5.87207 11.7939L5.89258 11.7061C5.94914 11.5023 6.07366 11.3251 6.24414 11.2031L6.31934 11.1543C6.50247 11.0485 6.71568 11.0096 6.92285 11.042L7.01074 11.0596C7.24411 11.1198 7.4447 11.2693 7.56934 11.4756V11.4766C7.88673 12.0256 8.62747 12.9521 10 12.9521C11.2009 12.9521 11.9179 12.2421 12.291 11.6973L12.4307 11.4766V11.4756C12.4751 11.3952 12.5318 11.3223 12.5977 11.2588L12.666 11.1982C12.738 11.1414 12.8182 11.0956 12.9033 11.0625L12.9902 11.0342C13.0786 11.0097 13.1704 10.9976 13.2617 11L13.3535 11.0078ZM7.33691 7.16504C7.57832 7.21306 7.80056 7.33181 7.97461 7.50586C8.10499 7.63628 8.20389 7.79364 8.26562 7.96582L8.31543 8.14258C8.35143 8.32357 8.34613 8.50993 8.30176 8.6875L8.24414 8.8623C8.14994 9.08958 7.99069 9.2842 7.78613 9.4209C7.58156 9.55759 7.34075 9.62982 7.09473 9.62988C6.80595 9.62988 6.52711 9.53004 6.30566 9.34863L6.21484 9.26562C5.98145 9.03224 5.84961 8.7158 5.84961 8.38574C5.84961 8.20132 5.89068 8.01991 5.96875 7.85449L6.05957 7.69434C6.16214 7.54083 6.29707 7.41256 6.4541 7.31836L6.61816 7.23633C6.7888 7.16565 6.9723 7.13362 7.15527 7.14258L7.33691 7.16504ZM12.9053 7.1416C13.194 7.1416 13.4729 7.24146 13.6943 7.42285L13.7852 7.50586C14.0185 7.73924 14.1504 8.05569 14.1504 8.38574C14.1504 8.57015 14.1093 8.75158 14.0312 8.91699L13.9404 9.07715C13.8037 9.28177 13.6092 9.44096 13.3818 9.53516C13.2112 9.60584 13.0277 9.63787 12.8447 9.62891L12.6631 9.60645C12.4821 9.57045 12.3121 9.49464 12.165 9.38574L12.0254 9.26562C11.895 9.13519 11.7961 8.97785 11.7344 8.80566L11.6846 8.62891C11.6486 8.44789 11.6539 8.26158 11.6982 8.08398L11.7559 7.90918C11.8265 7.73876 11.9338 7.58681 12.0693 7.46387L12.2139 7.35059C12.4184 7.2139 12.6592 7.14167 12.9053 7.1416Z" fill="#543C52" stroke="#543C52" style="fill:#543C52;fill:color(display-p3 0.3294 0.2353 0.3216);fill-opacity:1;stroke:#543C52;stroke:color(display-p3 0.3294 0.2353 0.3216);stroke-opacity:1;" stroke-width="0.09375"/>
</svg>
