<svg width="20" height="20" viewBox="0 0 20 20" fill="none" xmlns="http://www.w3.org/2000/svg">
<g clip-path="url(#clip0_970_1108)">
<path d="M8.23317 8.23329C7.98755 8.46217 7.79054 8.73817 7.6539 9.04483C7.51726 9.3515 7.44379 9.68254 7.43786 10.0182C7.43194 10.3539 7.49369 10.6873 7.61943 10.9986C7.74516 11.3099 7.93231 11.5927 8.16971 11.8301C8.4071 12.0675 8.68988 12.2546 9.00118 12.3804C9.31247 12.5061 9.6459 12.5679 9.98158 12.5619C10.3173 12.556 10.6483 12.4825 10.955 12.3459C11.2616 12.2093 11.5376 12.0122 11.7665 11.7666M8.9415 4.23329C9.2926 4.18955 9.64603 4.16729 9.99984 4.16663C15.8332 4.16663 18.3332 9.99996 18.3332 9.99996C17.9606 10.7976 17.4933 11.5474 16.9415 12.2333M5.50817 5.50829C3.85088 6.63715 2.52473 8.18768 1.6665 9.99996C1.6665 9.99996 4.1665 15.8333 9.99984 15.8333C11.5964 15.8376 13.1588 15.3709 14.4915 14.4916M1.6665 1.66663L18.3332 18.3333" stroke="#81818D" style="stroke:#81818D;stroke:color(display-p3 0.5059 0.5059 0.5529);stroke-opacity:1;" stroke-width="2" stroke-linecap="round" stroke-linejoin="round"/>
</g>
<defs>
<clipPath id="clip0_970_1108">
<rect width="20" height="20" fill="white" style="fill:white;fill-opacity:1;"/>
</clipPath>
</defs>
</svg>
