<svg width="20" height="20" viewBox="0 0 20 20" fill="none" xmlns="http://www.w3.org/2000/svg">
<path d="M18.5161 6.98984C18.3108 6.75722 18.0583 6.57094 17.7754 6.44338C17.4925 6.31583 17.1858 6.24991 16.8755 6.25H12.813V5.3125C12.812 4.40114 12.4495 3.52739 11.805 2.88296C11.1606 2.23853 10.2869 1.87603 9.37549 1.875C9.20145 1.87502 9.03086 1.92348 8.88281 2.01496C8.73475 2.10645 8.61509 2.23733 8.53721 2.39297L5.6708 8.125H2.50049C2.08609 8.125 1.68866 8.28962 1.39563 8.58265C1.10261 8.87567 0.937988 9.2731 0.937988 9.6875V16.5625C0.937988 16.9769 1.10261 17.3743 1.39563 17.6674C1.68866 17.9604 2.08609 18.125 2.50049 18.125H15.938C16.4711 18.1249 16.9859 17.9301 17.3856 17.5772C17.7852 17.2243 18.0422 16.7376 18.1083 16.2086L19.0458 8.70859C19.0844 8.40093 19.0571 8.08858 18.9658 7.79226C18.8744 7.49595 18.7212 7.22243 18.5161 6.98984ZM2.81299 10H5.31299V16.25H2.81299V10ZM17.188 8.47656L16.2505 15.9766C16.2409 16.0525 16.2038 16.1223 16.1462 16.1727C16.0886 16.2231 16.0145 16.2506 15.938 16.25H7.18799V9.28359L9.9083 3.84375C10.21 3.95319 10.4707 4.15287 10.6549 4.41565C10.8391 4.67843 10.938 4.99157 10.938 5.3125V7.1875C10.938 7.43614 11.0368 7.6746 11.2126 7.85041C11.3884 8.02623 11.6268 8.125 11.8755 8.125H16.8755C16.92 8.12465 16.9641 8.13383 17.0048 8.15192C17.0455 8.17 17.0819 8.19659 17.1115 8.22988C17.1411 8.26317 17.1632 8.3024 17.1764 8.34495C17.1896 8.3875 17.1936 8.43237 17.188 8.47656Z" fill="#81818D" style="fill:#81818D;fill:color(display-p3 0.5059 0.5059 0.5529);fill-opacity:1;"/>
</svg>
