<svg width="20" height="20" viewBox="0 0 20 20" fill="none" xmlns="http://www.w3.org/2000/svg">
<path d="M17.3301 8.63009L4.20044 1.13791C3.92361 0.982835 3.60613 0.915722 3.29023 0.945492C2.97433 0.975263 2.67497 1.10051 2.43199 1.30456C2.189 1.50862 2.0139 1.78182 1.92997 2.08782C1.84605 2.39382 1.85728 2.71813 1.96216 3.01759L4.31997 9.99884L1.96216 16.9801C1.87927 17.2156 1.85402 17.4676 1.88854 17.7148C1.92305 17.9621 2.01633 18.1975 2.16055 18.4014C2.30476 18.6052 2.49572 18.7715 2.71743 18.8863C2.93914 19.0011 3.18514 19.0611 3.43482 19.0613C3.70332 19.0608 3.96719 18.9914 4.20122 18.8598L4.20826 18.8551L17.3333 11.3496C17.5739 11.2134 17.7741 11.0158 17.9134 10.7769C18.0527 10.538 18.1261 10.2664 18.1261 9.98986C18.1261 9.71333 18.0527 9.44175 17.9134 9.20286C17.7741 8.96396 17.5739 8.76631 17.3333 8.63009H17.3301ZM3.99654 16.816L5.98247 10.9363H10.3098C10.5585 10.9363 10.7969 10.8376 10.9727 10.6618C11.1485 10.4859 11.2473 10.2475 11.2473 9.99884C11.2473 9.7502 11.1485 9.51175 10.9727 9.33593C10.7969 9.16011 10.5585 9.06134 10.3098 9.06134H5.98247L3.99576 3.18009L15.9301 9.99025L3.99654 16.816Z" fill="white" style="fill:white;fill-opacity:1;"/>
</svg>
