<svg width="21" height="20" viewBox="0 0 21 20" fill="none" xmlns="http://www.w3.org/2000/svg">
<path d="M5.04753 15.8333H6.23503L14.3809 7.6875L13.1934 6.5L5.04753 14.6458V15.8333ZM3.38086 17.5V13.9583L14.3809 2.97917C14.5475 2.82639 14.7317 2.70833 14.9334 2.625C15.135 2.54167 15.3467 2.5 15.5684 2.5C15.79 2.5 16.0053 2.54167 16.2142 2.625C16.4231 2.70833 16.6036 2.83333 16.7559 3L17.9017 4.16667C18.0684 4.31944 18.19 4.5 18.2667 4.70833C18.3434 4.91667 18.3814 5.125 18.3809 5.33333C18.3809 5.55556 18.3428 5.7675 18.2667 5.96917C18.1906 6.17083 18.0689 6.35472 17.9017 6.52083L6.92253 17.5H3.38086ZM13.7767 7.10417L13.1934 6.5L14.3809 7.6875L13.7767 7.10417Z" fill="#070A1C" style="fill:#070A1C;fill:color(display-p3 0.0275 0.0392 0.1098);fill-opacity:1;"/>
</svg>
