<svg width="21" height="20" viewBox="0 0 21 20" fill="none" xmlns="http://www.w3.org/2000/svg">
<path d="M2.95508 10C2.95508 8.00689 3.74685 6.09538 5.15622 4.68601C6.56559 3.27664 8.47711 2.48486 10.4703 2.48486C12.4634 2.48486 14.3749 3.27664 15.7843 4.68601C17.1937 6.09538 17.9854 8.00689 17.9854 10V14.7816C17.9854 15.5782 17.9854 15.9746 17.8671 16.2931C17.773 16.5454 17.6257 16.7746 17.4352 16.965C17.2448 17.1555 17.0156 17.3027 16.7633 17.3969C16.4448 17.5152 16.0475 17.5152 15.2518 17.5152H10.4703C8.47711 17.5152 6.56559 16.7234 5.15622 15.3141C3.74685 13.9047 2.95508 11.9932 2.95508 10Z" stroke="#070A1C" style="stroke:#070A1C;stroke:color(display-p3 0.0275 0.0392 0.1098);stroke-opacity:1;" stroke-width="1.66667"/>
<path d="M7.65186 9.06067H13.2882M10.47 12.8183H13.2882" stroke="#070A1C" style="stroke:#070A1C;stroke:color(display-p3 0.0275 0.0392 0.1098);stroke-opacity:1;" stroke-width="1.66667" stroke-linecap="round" stroke-linejoin="round"/>
</svg>
