<svg width="20" height="20" viewBox="0 0 20 20" fill="none" xmlns="http://www.w3.org/2000/svg">
<path d="M3.12451 2.22754H8.12451C8.33266 2.22754 8.53321 2.29997 8.69287 2.43066L8.75928 2.49023C8.92759 2.65855 9.02197 2.88697 9.02197 3.125C9.02197 3.33315 8.94955 3.5337 8.81885 3.69336L8.75928 3.75977C8.59096 3.92808 8.36254 4.02246 8.12451 4.02246H4.02197V15.9775H8.12451C8.33266 15.9775 8.53321 16.05 8.69287 16.1807L8.75928 16.2402C8.92759 16.4085 9.02197 16.637 9.02197 16.875C9.02197 17.0831 8.94955 17.2837 8.81885 17.4434L8.75928 17.5098C8.59096 17.6781 8.36254 17.7725 8.12451 17.7725H3.12451C2.91637 17.7725 2.71581 17.7 2.55615 17.5693L2.48975 17.5098C2.32143 17.3415 2.22705 17.113 2.22705 16.875V3.125C2.22705 2.91685 2.29948 2.7163 2.43018 2.55664L2.48975 2.49023C2.65806 2.32192 2.88648 2.22754 3.12451 2.22754ZM13.7485 5.97656C13.9573 5.97656 14.1588 6.04938 14.3188 6.18066L14.3843 6.24023L17.5093 9.36523C17.572 9.42783 17.6248 9.49929 17.6665 9.57715L17.7046 9.65625C17.7498 9.76537 17.773 9.88285 17.7729 10.001L17.769 10.0889C17.7632 10.1475 17.7511 10.2053 17.7339 10.2617L17.7046 10.3447C17.6705 10.4266 17.6241 10.5031 17.5679 10.5713L17.5093 10.6367H17.5083L14.3833 13.7617C14.2147 13.9302 13.9859 14.0254 13.7476 14.0254C13.5391 14.0253 13.3381 13.9523 13.1782 13.8213L13.1118 13.7617C12.9433 13.5932 12.8492 13.3643 12.8491 13.126C12.8491 12.9173 12.9211 12.7157 13.0522 12.5557L13.1118 12.4902L14.6372 10.9658L14.7056 10.8975H8.12451C7.91637 10.8975 7.71581 10.825 7.55615 10.6943L7.48975 10.6348C7.32143 10.4665 7.22705 10.238 7.22705 10C7.22705 9.79185 7.29948 9.5913 7.43018 9.43164L7.48975 9.36523C7.65806 9.19692 7.88648 9.10254 8.12451 9.10254H14.7056L14.6372 9.03418L13.1128 7.51172C12.9442 7.34315 12.8492 7.11437 12.8491 6.87598C12.8491 6.66725 12.922 6.46569 13.0532 6.30566L13.1128 6.24023C13.2814 6.07166 13.5101 5.97661 13.7485 5.97656Z" fill="#543C52" stroke="#543C52" style="fill:#543C52;fill:color(display-p3 0.3294 0.2353 0.3216);fill-opacity:1;stroke:#543C52;stroke:color(display-p3 0.3294 0.2353 0.3216);stroke-opacity:1;" stroke-width="0.08"/>
</svg>
