<svg width="21" height="20" viewBox="0 0 21 20" fill="none" xmlns="http://www.w3.org/2000/svg">
<path d="M3.04972 7.49798C3.04963 6.77282 3.22979 6.05901 3.574 5.42075C3.91822 4.78249 4.41568 4.2398 5.02166 3.84149C5.62763 3.44318 6.32311 3.20175 7.04554 3.1389C7.76797 3.07605 8.4947 3.19376 9.16035 3.48144C9.826 3.76913 10.4097 4.21776 10.859 4.78699C11.3082 5.35622 11.6089 6.02819 11.7341 6.74247C11.8592 7.45675 11.8048 8.19094 11.5759 8.87899C11.3469 9.56705 10.9504 10.1874 10.4222 10.6842C11.4181 11.1677 12.2828 11.8841 12.9429 12.7728C13.6031 13.6615 14.0394 14.6962 14.2147 15.7892C14.234 15.9109 14.2291 16.0351 14.2004 16.1549C14.1717 16.2746 14.1197 16.3876 14.0473 16.4872C13.9749 16.5869 13.8836 16.6713 13.7786 16.7356C13.6736 16.8 13.557 16.8431 13.4353 16.8624C13.3137 16.8816 13.1895 16.8768 13.0697 16.8481C12.9499 16.8193 12.837 16.7673 12.7374 16.6949C12.6377 16.6225 12.5533 16.5313 12.4889 16.4263C12.4246 16.3213 12.3815 16.2046 12.3622 16.083C12.1747 14.9084 11.5746 13.8391 10.6697 13.0671C9.76472 12.2951 8.6142 11.8711 7.42472 11.8711C6.23523 11.8711 5.08471 12.2951 4.17976 13.0671C3.2748 13.8391 2.6747 14.9084 2.48722 16.083C2.46785 16.2046 2.42471 16.3212 2.36027 16.4262C2.29582 16.5312 2.21133 16.6224 2.11163 16.6947C2.01192 16.767 1.89895 16.819 1.77916 16.8477C1.65937 16.8763 1.5351 16.8811 1.41347 16.8617C1.29183 16.8424 1.1752 16.7992 1.07023 16.7348C0.96527 16.6703 0.874025 16.5858 0.801712 16.4861C0.729398 16.3864 0.677431 16.2735 0.648778 16.1537C0.620126 16.0339 0.615348 15.9096 0.634718 15.788C0.809433 14.695 1.24546 13.6604 1.90574 12.772C2.56601 11.8837 3.43102 11.1679 4.42722 10.6855C3.99222 10.2763 3.64559 9.78243 3.40869 9.23424C3.17179 8.68605 3.04962 8.09517 3.04972 7.49798ZM14.2997 5.62298C15.026 5.62348 15.7365 5.8348 16.345 6.23129C16.9535 6.62777 17.4338 7.19236 17.7276 7.85654C18.0215 8.52071 18.1162 9.25589 18.0003 9.97285C17.8844 10.6898 17.5628 11.3577 17.0747 11.8955C17.836 12.2726 18.5124 12.801 19.0626 13.4483C19.6128 14.0957 20.0252 14.8484 20.2747 15.6605C20.3243 15.8181 20.3312 15.986 20.2949 16.1471C20.2586 16.3083 20.1803 16.4569 20.068 16.578C19.9556 16.6992 19.8132 16.7884 19.6552 16.8367C19.4973 16.8849 19.3293 16.8906 19.1685 16.853C19.0076 16.8158 18.8595 16.7368 18.739 16.624C18.6185 16.5111 18.5299 16.3685 18.4822 16.2105C18.2579 15.4859 17.8495 14.8319 17.297 14.3122C16.7445 13.7926 16.0667 13.425 15.3297 13.2455C15.125 13.1961 14.9429 13.0792 14.8128 12.9136C14.6826 12.7481 14.612 12.5436 14.6122 12.333V11.893C14.6121 11.7184 14.6607 11.5473 14.7526 11.3989C14.8445 11.2505 14.9759 11.1307 15.1322 11.053C15.5112 10.8652 15.8155 10.5548 15.9958 10.1722C16.176 9.78956 16.2217 9.35726 16.1252 8.94546C16.0288 8.53366 15.796 8.16656 15.4646 7.90379C15.1332 7.64101 14.7227 7.498 14.2997 7.49798C14.0511 7.49798 13.8126 7.3992 13.6368 7.22339C13.461 7.04757 13.3622 6.80912 13.3622 6.56048C13.3622 6.31184 13.461 6.07338 13.6368 5.89756C13.8126 5.72175 14.0511 5.62298 14.2997 5.62298ZM7.42472 4.99798C7.09179 4.99045 6.76072 5.04951 6.45094 5.17169C6.14115 5.29387 5.8589 5.47671 5.62075 5.70948C5.3826 5.94225 5.19336 6.22025 5.06413 6.52716C4.93489 6.83407 4.86828 7.1637 4.8682 7.49671C4.86811 7.82972 4.93456 8.15939 5.06364 8.46637C5.19272 8.77334 5.38182 9.05143 5.61986 9.28432C5.85789 9.5172 6.14005 9.70019 6.44977 9.82252C6.7595 9.94486 7.09054 10.0041 7.42347 9.99673C8.07667 9.98228 8.69826 9.7127 9.15518 9.24568C9.6121 8.77866 9.86803 8.15132 9.8682 7.49796C9.86836 6.8446 9.61274 6.21714 9.15605 5.74989C8.69937 5.28264 8.07791 5.01275 7.42472 4.99798Z" fill="#070A1C" style="fill:#070A1C;fill:color(display-p3 0.0275 0.0392 0.1098);fill-opacity:1;"/>
</svg>
