<svg width="21" height="20" viewBox="0 0 21 20" fill="none" xmlns="http://www.w3.org/2000/svg">
<path d="M17.6032 8.62499L11.5417 2.56355C11.2576 2.27946 10.8722 2.11987 10.4704 2.11987C10.0685 2.11987 9.68318 2.27946 9.399 2.56355L3.33756 8.62499C3.19628 8.76541 3.08428 8.93249 3.00806 9.11653C2.93184 9.30057 2.89292 9.49791 2.89356 9.69711V16.9708C2.89356 17.212 2.98935 17.4432 3.15987 17.6138C3.33038 17.7843 3.56164 17.8801 3.80278 17.8801H17.1379C17.3791 17.8801 17.6104 17.7843 17.7809 17.6138C17.9514 17.4432 18.0472 17.212 18.0472 16.9708V9.69711C18.0478 9.49791 18.0089 9.30057 17.9327 9.11653C17.8565 8.93249 17.7445 8.76541 17.6032 8.62499ZM16.2287 16.0616H4.71199V9.82213L10.4704 4.06376L16.2287 9.82213V16.0616Z" fill="#070A1C" style="fill:#070A1C;fill:color(display-p3 0.0275 0.0392 0.1098);fill-opacity:1;"/>
</svg>
