<svg width="20" height="20" viewBox="0 0 20 20" fill="none" xmlns="http://www.w3.org/2000/svg">
<circle cx="2.34996" cy="2.34996" r="2.34996" transform="matrix(-1 0 0 1 12.3066 7.65021)" stroke="#070A1C" style="stroke:#070A1C;stroke:color(display-p3 0.0275 0.0392 0.1098);stroke-opacity:1;" stroke-width="1.8"/>
<path d="M9.95666 2.16699V1.26699H9.95664L9.95666 2.16699ZM13.4821 4.46777L13.0321 5.2472L13.0321 5.24721L13.4821 4.46777ZM15.4401 9.2168L14.5401 9.21677V9.2168H15.4401ZM13.4821 15.5322L13.0321 14.7528L13.0321 14.7528L13.4821 15.5322ZM9.95666 17.833L9.95664 18.733H9.95666V17.833ZM6.43225 15.5322L6.88235 14.7529L6.88225 14.7528L6.43225 15.5322ZM3.69006 10H4.59006V9.99993L3.69006 10ZM6.43225 4.46777L6.88225 5.2472L6.88237 5.24713L6.43225 4.46777ZM7.51311 3.08082L6.64762 2.83396L7.51311 3.08082ZM8.14374 2.37811L7.9361 1.50239L8.14374 2.37811ZM2.60863 7.2878L1.76425 6.97631L2.60863 7.2878ZM8.14371 17.6219L7.93606 18.4976L8.14371 17.6219ZM12.3995 16.9191L11.5342 16.6716L12.3995 16.9191ZM15.9815 15.003L15.2895 14.4275L15.9815 15.003ZM15.0734 15.2565L14.9121 16.1419L15.0734 15.2565ZM16.7684 6.13019L15.9866 6.57604L16.7684 6.13019ZM16.3585 7.35561L16.9067 8.06937L16.3585 7.35561ZM2.9408 11.718L3.55364 12.3771L2.9408 11.718ZM15.9816 4.99598L15.2899 5.57176L15.9816 4.99598ZM16.7552 11.3246L17.1513 10.5165L16.7552 11.3246ZM17.4001 12.4424L16.545 12.1619L17.4001 12.4424ZM9.95666 2.16699V3.06699C10.5096 3.06699 11.0466 3.13191 11.5609 3.25384L11.7685 2.37812L11.9761 1.5024C11.3273 1.34856 10.651 1.26699 9.95666 1.26699V2.16699ZM12.3995 3.08089L11.5342 3.32843C11.7573 4.10823 12.2724 4.80863 13.0321 5.2472L13.4821 4.46777L13.9321 3.68835C13.5935 3.49288 13.3649 3.18316 13.2648 2.83334L12.3995 3.08089ZM13.4821 4.46777L13.0321 5.24721C13.7259 5.64775 14.5066 5.76137 15.2354 5.6281L15.0735 4.74278L14.9116 3.85746C14.5851 3.91717 14.2406 3.86645 13.932 3.68833L13.4821 4.46777ZM15.9816 4.99598L15.2899 5.57176C15.5505 5.88484 15.784 6.22076 15.9866 6.57604L16.7684 6.13019L17.5502 5.68434C17.2947 5.23633 17.0008 4.81357 16.6733 4.42019L15.9816 4.99598ZM16.3585 7.35561L15.8103 6.64184C15.04 7.23347 14.5401 8.16611 14.5401 9.21677L15.4401 9.2168L16.3401 9.21682C16.3401 8.74986 16.5602 8.33546 16.9067 8.06937L16.3585 7.35561ZM15.4401 9.2168H14.5401C14.5401 10.5 15.2839 11.6057 16.359 12.1327L16.7552 11.3246L17.1513 10.5165C16.6686 10.2798 16.3401 9.78641 16.3401 9.2168H15.4401ZM17.4001 12.4424L16.545 12.1619C16.2707 12.9978 15.8411 13.7642 15.2895 14.4275L15.9815 15.003L16.6735 15.5784C17.367 14.7444 17.9089 13.7787 18.2553 12.723L17.4001 12.4424ZM15.0734 15.2565L15.2348 14.3711C14.5059 14.2382 13.7254 14.3526 13.0321 14.7528L13.4821 15.5322L13.932 16.3117C14.2409 16.1334 14.5857 16.0824 14.9121 16.1419L15.0734 15.2565ZM13.4821 15.5322L13.0321 14.7528C12.2724 15.1914 11.7573 15.8918 11.5342 16.6716L12.3995 16.9191L13.2648 17.1667C13.3649 16.8168 13.5935 16.5071 13.9321 16.3116L13.4821 15.5322ZM11.7685 17.6219L11.5609 16.7462C11.0466 16.8681 10.5097 16.933 9.95666 16.933V17.833V18.733C10.651 18.733 11.3273 18.6514 11.9762 18.4976L11.7685 17.6219ZM9.95666 17.833L9.95668 16.933C9.4031 16.933 8.86581 16.8682 8.35136 16.7462L8.14371 17.6219L7.93606 18.4976C8.58539 18.6516 9.26201 18.733 9.95664 18.733L9.95666 17.833ZM7.5131 16.9192L8.37858 16.6723C8.15628 15.893 7.64253 15.1919 6.88235 14.7529L6.43225 15.5322L5.98214 16.3116C6.31983 16.5066 6.54773 16.8159 6.64762 17.1661L7.5131 16.9192ZM6.43225 15.5322L6.88225 14.7528C6.18878 14.3524 5.40777 14.2381 4.6786 14.371L4.83999 15.2564L5.00139 16.1418C5.32806 16.0823 5.67333 16.1333 5.98225 16.3116L6.43225 15.5322ZM3.93184 15.0028L4.62401 14.4276C4.12568 13.828 3.72729 13.1437 3.45288 12.3996L2.60847 12.711L1.76406 13.0224C2.11028 13.9612 2.61254 14.8235 3.23968 15.5781L3.93184 15.0028ZM2.9408 11.718L3.55364 12.3771C4.18942 11.7859 4.59006 10.9399 4.59006 10H3.69006H2.79006C2.79006 10.4181 2.61369 10.7932 2.32796 11.0589L2.9408 11.718ZM3.69006 10L4.59006 9.99993C4.58999 9.0604 4.18987 8.21388 3.55405 7.62233L2.94101 8.28125L2.32796 8.94017C2.61354 9.20587 2.79003 9.5815 2.79006 10.0001L3.69006 10ZM2.60863 7.2878L3.45302 7.59928C3.7275 6.85518 4.1258 6.17088 4.62396 5.57148L3.9318 4.99622L3.23964 4.42097C2.61253 5.17553 2.11047 6.03778 1.76425 6.97631L2.60863 7.2878ZM4.83996 4.74286L4.67802 5.62817C5.40705 5.76152 6.18824 5.64788 6.88225 5.2472L6.43225 4.46777L5.98225 3.68835C5.67364 3.86653 5.32869 3.91732 5.0019 3.85755L4.83996 4.74286ZM6.43225 4.46777L6.88237 5.24713C7.6425 4.80811 8.15628 4.1071 8.37859 3.32769L7.51311 3.08082L6.64762 2.83396C6.54775 3.18412 6.31985 3.49337 5.98213 3.68842L6.43225 4.46777ZM8.14374 2.37811L8.35138 3.25383C8.86584 3.13185 9.40315 3.067 9.95668 3.06699L9.95666 2.16699L9.95664 1.26699C9.26205 1.26701 8.58541 1.34843 7.9361 1.50239L8.14374 2.37811ZM7.51311 3.08082L8.37859 3.32769C8.38731 3.2971 8.39775 3.271 8.40811 3.25046C8.41853 3.22979 8.42685 3.21874 8.42994 3.21506C8.43283 3.21161 8.42834 3.21789 8.41396 3.22733C8.39855 3.23746 8.37688 3.24778 8.35138 3.25383L8.14374 2.37811L7.9361 1.50239C7.15594 1.68737 6.7834 2.35796 6.64762 2.83396L7.51311 3.08082ZM2.94101 8.28125L3.55405 7.62233C3.52752 7.59765 3.50577 7.57238 3.48956 7.54933C3.47321 7.52608 3.46584 7.50988 3.4633 7.50315C3.46089 7.49678 3.46473 7.50415 3.46546 7.5239C3.46625 7.54544 3.46288 7.57254 3.45302 7.59928L2.60863 7.2878L1.76425 6.97631C1.45008 7.82799 1.93084 8.5707 2.32796 8.94017L2.94101 8.28125ZM4.83999 15.2564L4.6786 14.371C4.64735 14.3767 4.61937 14.3789 4.59641 14.3787C4.5733 14.3785 4.55971 14.3759 4.55499 14.3748C4.55059 14.3737 4.5581 14.3749 4.57283 14.3835C4.5886 14.3928 4.60735 14.4075 4.62401 14.4276L3.93184 15.0028L3.23968 15.5781C3.75089 16.1932 4.51501 16.2305 5.00139 16.1418L4.83999 15.2564ZM8.14371 17.6219L8.35136 16.7462C8.37686 16.7522 8.39852 16.7625 8.41393 16.7727C8.42832 16.7821 8.43281 16.7884 8.42992 16.785C8.42683 16.7813 8.41852 16.7702 8.4081 16.7496C8.39774 16.729 8.38731 16.7029 8.37858 16.6723L7.5131 16.9192L6.64762 17.1661C6.78339 17.6421 7.15594 18.3126 7.93606 18.4976L8.14371 17.6219ZM12.3995 16.9191L11.5342 16.6716C11.5254 16.7023 11.5149 16.7285 11.5045 16.7491C11.494 16.7699 11.4857 16.781 11.4825 16.7848C11.4796 16.7883 11.484 16.782 11.4984 16.7726C11.5137 16.7625 11.5354 16.7522 11.5609 16.7462L11.7685 17.6219L11.9762 18.4976C12.7563 18.3126 13.1288 17.6421 13.2648 17.1667L12.3995 16.9191ZM15.9815 15.003L15.2895 14.4275C15.3061 14.4075 15.3248 14.3928 15.3406 14.3836C15.3553 14.375 15.3628 14.3738 15.3583 14.3748C15.3536 14.376 15.34 14.3785 15.3169 14.3787C15.294 14.3789 15.266 14.3768 15.2348 14.3711L15.0734 15.2565L14.9121 16.1419C15.3985 16.2306 16.1623 16.1931 16.6735 15.5784L15.9815 15.003ZM16.7684 6.13019L15.9866 6.57604C15.9698 6.54665 15.9608 6.5112 15.96 6.48088C15.9593 6.45472 15.965 6.44805 15.959 6.46345C15.9529 6.47916 15.9385 6.50749 15.9105 6.5431C15.8829 6.57832 15.8482 6.61271 15.8103 6.64184L16.3585 7.35561L16.9067 8.06937C17.2068 7.83885 17.4827 7.51102 17.6363 7.11671C17.795 6.70915 17.8346 6.18304 17.5502 5.68434L16.7684 6.13019ZM2.60847 12.711L3.45288 12.3996C3.46274 12.4263 3.46611 12.4534 3.46532 12.475C3.46459 12.4948 3.46075 12.5022 3.46313 12.4959C3.46565 12.4892 3.47299 12.4731 3.48929 12.4499C3.50546 12.4269 3.52717 12.4017 3.55364 12.3771L2.9408 11.718L2.32796 11.0589C1.93059 11.4283 1.45004 12.1709 1.76406 13.0224L2.60847 12.711ZM15.0735 4.74278L15.2354 5.6281C15.2665 5.6224 15.2944 5.62021 15.3173 5.6204C15.3404 5.62059 15.3539 5.62313 15.3586 5.62428C15.363 5.62535 15.3556 5.62414 15.3409 5.61556C15.3252 5.60637 15.3065 5.59172 15.2899 5.57176L15.9816 4.99598L16.6733 4.42019C16.162 3.80588 15.3984 3.76844 14.9116 3.85746L15.0735 4.74278ZM3.9318 4.99622L4.62396 5.57148C4.60729 5.59153 4.58853 5.60627 4.57273 5.61552C4.55797 5.62417 4.55042 5.62539 4.55477 5.62433C4.55944 5.6232 4.57298 5.62065 4.59603 5.62046C4.61893 5.62027 4.64685 5.62247 4.67802 5.62817L4.83996 4.74286L5.0019 3.85755C4.51524 3.76853 3.75094 3.80575 3.23964 4.42097L3.9318 4.99622ZM16.7552 11.3246L16.359 12.1327C16.4022 12.1539 16.4431 12.1808 16.4772 12.2098C16.5117 12.2392 16.5315 12.2641 16.5405 12.2782C16.5494 12.292 16.5425 12.2865 16.5379 12.2606C16.5326 12.2306 16.5344 12.194 16.545 12.1619L17.4001 12.4424L18.2553 12.723C18.434 12.178 18.2905 11.671 18.0539 11.3037C17.8252 10.9484 17.4902 10.6826 17.1513 10.5165L16.7552 11.3246ZM11.7685 2.37812L11.5609 3.25384C11.5354 3.2478 11.5137 3.23748 11.4983 3.22738C11.484 3.21796 11.4796 3.21172 11.4825 3.21524C11.4857 3.21899 11.494 3.23012 11.5045 3.25089C11.5149 3.27152 11.5254 3.29773 11.5342 3.32843L12.3995 3.08089L13.2648 2.83334C13.1288 2.35794 12.7563 1.68737 11.9761 1.5024L11.7685 2.37812Z" fill="#070A1C" style="fill:#070A1C;fill:color(display-p3 0.0275 0.0392 0.1098);fill-opacity:1;"/>
</svg>
